<?xml version="1.0" encoding="utf-8" standalone="no"?>
<!DOCTYPE svg PUBLIC "-//W3C//DTD SVG 1.1//EN"
  "http://www.w3.org/Graphics/SVG/1.1/DTD/svg11.dtd">
<svg xmlns:xlink="http://www.w3.org/1999/xlink" width="421.6pt" height="296.682344pt" viewBox="0 0 421.6 296.682344" xmlns="http://www.w3.org/2000/svg" version="1.1">
 <metadata>
  <rdf:RDF xmlns:dc="http://purl.org/dc/elements/1.1/" xmlns:cc="http://creativecommons.org/ns#" xmlns:rdf="http://www.w3.org/1999/02/22-rdf-syntax-ns#">
   <cc:Work>
    <dc:type rdf:resource="http://purl.org/dc/dcmitype/StillImage"/>
    <dc:date>2026-08-01T10:56:39.546341</dc:date>
    <dc:format>image/svg+xml</dc:format>
    <dc:creator>
     <cc:Agent>
      <dc:title>Matplotlib v3.11.1, https://matplotlib.org/</dc:title>
     </cc:Agent>
    </dc:creator>
   </cc:Work>
  </rdf:RDF>
 </metadata>
 <defs>
  <style type="text/css">*{stroke-linejoin: round; stroke-linecap: butt}</style>
 </defs>
 <g id="figure_1">
  <g id="patch_1">
   <path d="M 0 296.682344
L 421.6 296.682344
L 421.6 0
L 0 0
z
" style="fill: #ffffff"/>
  </g>
  <g id="axes_1">
   <g id="patch_2">
    <path d="M 51.7 256.68
L 414.4 256.68
L 414.4 7.2
L 51.7 7.2
z
" style="fill: #ffffff"/>
   </g>
   <g id="matplotlib.axis_1">
    <g id="xtick_1">
     <g id="line2d_1">
      <path d="M 68.186364 256.68
L 68.186364 7.2
" clip-path="url(#p9dd85ed505)" style="fill: none; stroke: #e6e6e6; stroke-width: 0.5; stroke-linecap: square"/>
     </g>
     <g id="line2d_2">
      <defs>
       <path id="md458797d0b" d="M 0 0
L 0 3.5
" style="stroke: #000000; stroke-width: 0.8"/>
      </defs>
      <g>
       <use xlink:href="#md458797d0b" x="68.186364" y="256.68" style="stroke: #000000; stroke-width: 0.8"/>
      </g>
     </g>
     <g id="text_1">
      <!-- $\mathdefault{10^{-5}}$ -->
      <g transform="translate(56.436364 272.98) scale(0.1 -0.1)">
       <defs>
        <path id="DejaVuSans-14" d="M 794 531
L 1825 531
L 1825 4091
L 703 3866
L 703 4441
L 1819 4666
L 2450 4666
L 2450 531
L 3481 531
L 3481 0
L 794 0
L 794 531
z
" transform="scale(0.015625)"/>
        <path id="DejaVuSans-13" d="M 2034 4250
Q 1547 4250 1301 3770
Q 1056 3291 1056 2328
Q 1056 1369 1301 889
Q 1547 409 2034 409
Q 2525 409 2770 889
Q 3016 1369 3016 2328
Q 3016 3291 2770 3770
Q 2525 4250 2034 4250
z
M 2034 4750
Q 2819 4750 3233 4129
Q 3647 3509 3647 2328
Q 3647 1150 3233 529
Q 2819 -91 2034 -91
Q 1250 -91 836 529
Q 422 1150 422 2328
Q 422 3509 836 4129
Q 1250 4750 2034 4750
z
" transform="scale(0.015625)"/>
        <path id="DejaVuSans-c9c" d="M 678 2272
L 4684 2272
L 4684 1741
L 678 1741
L 678 2272
z
" transform="scale(0.015625)"/>
        <path id="DejaVuSans-18" d="M 691 4666
L 3169 4666
L 3169 4134
L 1269 4134
L 1269 2991
Q 1406 3038 1543 3061
Q 1681 3084 1819 3084
Q 2600 3084 3056 2656
Q 3513 2228 3513 1497
Q 3513 744 3044 326
Q 2575 -91 1722 -91
Q 1428 -91 1123 -41
Q 819 9 494 109
L 494 744
Q 775 591 1075 516
Q 1375 441 1709 441
Q 2250 441 2565 725
Q 2881 1009 2881 1497
Q 2881 1984 2565 2268
Q 2250 2553 1709 2553
Q 1456 2553 1204 2497
Q 953 2441 691 2322
L 691 4666
z
" transform="scale(0.015625)"/>
       </defs>
       <use xlink:href="#DejaVuSans-14" transform="translate(0 0.665625)"/>
       <use xlink:href="#DejaVuSans-13" transform="translate(63.623047 0.665625)"/>
       <use xlink:href="#DejaVuSans-c9c" transform="translate(128.203125 41.965625) scale(0.7)"/>
       <use xlink:href="#DejaVuSans-18" transform="translate(186.855469 41.965625) scale(0.7)"/>
      </g>
     </g>
    </g>
    <g id="xtick_2">
     <g id="line2d_3">
      <path d="M 201.29542 256.68
L 201.29542 7.2
" clip-path="url(#p9dd85ed505)" style="fill: none; stroke: #e6e6e6; stroke-width: 0.5; stroke-linecap: square"/>
     </g>
     <g id="line2d_4">
      <g>
       <use xlink:href="#md458797d0b" x="201.29542" y="256.68" style="stroke: #000000; stroke-width: 0.8"/>
      </g>
     </g>
     <g id="text_2">
      <!-- $\mathdefault{10^{-4}}$ -->
      <g transform="translate(189.54542 272.98) scale(0.1 -0.1)">
       <defs>
        <path id="DejaVuSans-17" d="M 2419 4116
L 825 1625
L 2419 1625
L 2419 4116
z
M 2253 4666
L 3047 4666
L 3047 1625
L 3713 1625
L 3713 1100
L 3047 1100
L 3047 0
L 2419 0
L 2419 1100
L 313 1100
L 313 1709
L 2253 4666
z
" transform="scale(0.015625)"/>
       </defs>
       <use xlink:href="#DejaVuSans-14" transform="translate(0 0.665625)"/>
       <use xlink:href="#DejaVuSans-13" transform="translate(63.623047 0.665625)"/>
       <use xlink:href="#DejaVuSans-c9c" transform="translate(128.203125 41.965625) scale(0.7)"/>
       <use xlink:href="#DejaVuSans-17" transform="translate(186.855469 41.965625) scale(0.7)"/>
      </g>
     </g>
    </g>
    <g id="xtick_3">
     <g id="line2d_5">
      <path d="M 334.404476 256.68
L 334.404476 7.2
" clip-path="url(#p9dd85ed505)" style="fill: none; stroke: #e6e6e6; stroke-width: 0.5; stroke-linecap: square"/>
     </g>
     <g id="line2d_6">
      <g>
       <use xlink:href="#md458797d0b" x="334.404476" y="256.68" style="stroke: #000000; stroke-width: 0.8"/>
      </g>
     </g>
     <g id="text_3">
      <!-- $\mathdefault{10^{-3}}$ -->
      <g transform="translate(322.654476 273.08) scale(0.1 -0.1)">
       <defs>
        <path id="DejaVuSans-16" d="M 2597 2516
Q 3050 2419 3304 2112
Q 3559 1806 3559 1356
Q 3559 666 3084 287
Q 2609 -91 1734 -91
Q 1441 -91 1130 -33
Q 819 25 488 141
L 488 750
Q 750 597 1062 519
Q 1375 441 1716 441
Q 2309 441 2620 675
Q 2931 909 2931 1356
Q 2931 1769 2642 2001
Q 2353 2234 1838 2234
L 1294 2234
L 1294 2753
L 1863 2753
Q 2328 2753 2575 2939
Q 2822 3125 2822 3475
Q 2822 3834 2567 4026
Q 2313 4219 1838 4219
Q 1578 4219 1281 4162
Q 984 4106 628 3988
L 628 4550
Q 988 4650 1302 4700
Q 1616 4750 1894 4750
Q 2613 4750 3031 4423
Q 3450 4097 3450 3541
Q 3450 3153 3228 2886
Q 3006 2619 2597 2516
z
" transform="scale(0.015625)"/>
       </defs>
       <use xlink:href="#DejaVuSans-14" transform="translate(0 0.746875)"/>
       <use xlink:href="#DejaVuSans-13" transform="translate(63.623047 0.746875)"/>
       <use xlink:href="#DejaVuSans-c9c" transform="translate(128.203125 42.046875) scale(0.7)"/>
       <use xlink:href="#DejaVuSans-16" transform="translate(186.855469 42.046875) scale(0.7)"/>
      </g>
     </g>
    </g>
    <g id="xtick_4">
     <g id="line2d_7">
      <path d="M 55.286763 256.68
L 55.286763 7.2
" clip-path="url(#p9dd85ed505)" style="fill: none; stroke: #e6e6e6; stroke-width: 0.5; stroke-linecap: square"/>
     </g>
     <g id="line2d_8">
      <defs>
       <path id="mc0854fd9f2" d="M 0 0
L 0 2
" style="stroke: #000000; stroke-width: 0.6"/>
      </defs>
      <g>
       <use xlink:href="#mc0854fd9f2" x="55.286763" y="256.68" style="stroke: #000000; stroke-width: 0.6"/>
      </g>
     </g>
    </g>
    <g id="xtick_5">
     <g id="line2d_9">
      <path d="M 62.095627 256.68
L 62.095627 7.2
" clip-path="url(#p9dd85ed505)" style="fill: none; stroke: #e6e6e6; stroke-width: 0.5; stroke-linecap: square"/>
     </g>
     <g id="line2d_10">
      <g>
       <use xlink:href="#mc0854fd9f2" x="62.095627" y="256.68" style="stroke: #000000; stroke-width: 0.6"/>
      </g>
     </g>
    </g>
    <g id="xtick_6">
     <g id="line2d_11">
      <path d="M 108.256182 256.68
L 108.256182 7.2
" clip-path="url(#p9dd85ed505)" style="fill: none; stroke: #e6e6e6; stroke-width: 0.5; stroke-linecap: square"/>
     </g>
     <g id="line2d_12">
      <g>
       <use xlink:href="#mc0854fd9f2" x="108.256182" y="256.68" style="stroke: #000000; stroke-width: 0.6"/>
      </g>
     </g>
    </g>
    <g id="xtick_7">
     <g id="line2d_13">
      <path d="M 131.695524 256.68
L 131.695524 7.2
" clip-path="url(#p9dd85ed505)" style="fill: none; stroke: #e6e6e6; stroke-width: 0.5; stroke-linecap: square"/>
     </g>
     <g id="line2d_14">
      <g>
       <use xlink:href="#mc0854fd9f2" x="131.695524" y="256.68" style="stroke: #000000; stroke-width: 0.6"/>
      </g>
     </g>
    </g>
    <g id="xtick_8">
     <g id="line2d_15">
      <path d="M 148.326001 256.68
L 148.326001 7.2
" clip-path="url(#p9dd85ed505)" style="fill: none; stroke: #e6e6e6; stroke-width: 0.5; stroke-linecap: square"/>
     </g>
     <g id="line2d_16">
      <g>
       <use xlink:href="#mc0854fd9f2" x="148.326001" y="256.68" style="stroke: #000000; stroke-width: 0.6"/>
      </g>
     </g>
    </g>
    <g id="xtick_9">
     <g id="line2d_17">
      <path d="M 161.225601 256.68
L 161.225601 7.2
" clip-path="url(#p9dd85ed505)" style="fill: none; stroke: #e6e6e6; stroke-width: 0.5; stroke-linecap: square"/>
     </g>
     <g id="line2d_18">
      <g>
       <use xlink:href="#mc0854fd9f2" x="161.225601" y="256.68" style="stroke: #000000; stroke-width: 0.6"/>
      </g>
     </g>
    </g>
    <g id="xtick_10">
     <g id="line2d_19">
      <path d="M 171.765342 256.68
L 171.765342 7.2
" clip-path="url(#p9dd85ed505)" style="fill: none; stroke: #e6e6e6; stroke-width: 0.5; stroke-linecap: square"/>
     </g>
     <g id="line2d_20">
      <g>
       <use xlink:href="#mc0854fd9f2" x="171.765342" y="256.68" style="stroke: #000000; stroke-width: 0.6"/>
      </g>
     </g>
    </g>
    <g id="xtick_11">
     <g id="line2d_21">
      <path d="M 180.676566 256.68
L 180.676566 7.2
" clip-path="url(#p9dd85ed505)" style="fill: none; stroke: #e6e6e6; stroke-width: 0.5; stroke-linecap: square"/>
     </g>
     <g id="line2d_22">
      <g>
       <use xlink:href="#mc0854fd9f2" x="180.676566" y="256.68" style="stroke: #000000; stroke-width: 0.6"/>
      </g>
     </g>
    </g>
    <g id="xtick_12">
     <g id="line2d_23">
      <path d="M 188.39582 256.68
L 188.39582 7.2
" clip-path="url(#p9dd85ed505)" style="fill: none; stroke: #e6e6e6; stroke-width: 0.5; stroke-linecap: square"/>
     </g>
     <g id="line2d_24">
      <g>
       <use xlink:href="#mc0854fd9f2" x="188.39582" y="256.68" style="stroke: #000000; stroke-width: 0.6"/>
      </g>
     </g>
    </g>
    <g id="xtick_13">
     <g id="line2d_25">
      <path d="M 195.204684 256.68
L 195.204684 7.2
" clip-path="url(#p9dd85ed505)" style="fill: none; stroke: #e6e6e6; stroke-width: 0.5; stroke-linecap: square"/>
     </g>
     <g id="line2d_26">
      <g>
       <use xlink:href="#mc0854fd9f2" x="195.204684" y="256.68" style="stroke: #000000; stroke-width: 0.6"/>
      </g>
     </g>
    </g>
    <g id="xtick_14">
     <g id="line2d_27">
      <path d="M 241.365239 256.68
L 241.365239 7.2
" clip-path="url(#p9dd85ed505)" style="fill: none; stroke: #e6e6e6; stroke-width: 0.5; stroke-linecap: square"/>
     </g>
     <g id="line2d_28">
      <g>
       <use xlink:href="#mc0854fd9f2" x="241.365239" y="256.68" style="stroke: #000000; stroke-width: 0.6"/>
      </g>
     </g>
    </g>
    <g id="xtick_15">
     <g id="line2d_29">
      <path d="M 264.80458 256.68
L 264.80458 7.2
" clip-path="url(#p9dd85ed505)" style="fill: none; stroke: #e6e6e6; stroke-width: 0.5; stroke-linecap: square"/>
     </g>
     <g id="line2d_30">
      <g>
       <use xlink:href="#mc0854fd9f2" x="264.80458" y="256.68" style="stroke: #000000; stroke-width: 0.6"/>
      </g>
     </g>
    </g>
    <g id="xtick_16">
     <g id="line2d_31">
      <path d="M 281.435057 256.68
L 281.435057 7.2
" clip-path="url(#p9dd85ed505)" style="fill: none; stroke: #e6e6e6; stroke-width: 0.5; stroke-linecap: square"/>
     </g>
     <g id="line2d_32">
      <g>
       <use xlink:href="#mc0854fd9f2" x="281.435057" y="256.68" style="stroke: #000000; stroke-width: 0.6"/>
      </g>
     </g>
    </g>
    <g id="xtick_17">
     <g id="line2d_33">
      <path d="M 294.334658 256.68
L 294.334658 7.2
" clip-path="url(#p9dd85ed505)" style="fill: none; stroke: #e6e6e6; stroke-width: 0.5; stroke-linecap: square"/>
     </g>
     <g id="line2d_34">
      <g>
       <use xlink:href="#mc0854fd9f2" x="294.334658" y="256.68" style="stroke: #000000; stroke-width: 0.6"/>
      </g>
     </g>
    </g>
    <g id="xtick_18">
     <g id="line2d_35">
      <path d="M 304.874399 256.68
L 304.874399 7.2
" clip-path="url(#p9dd85ed505)" style="fill: none; stroke: #e6e6e6; stroke-width: 0.5; stroke-linecap: square"/>
     </g>
     <g id="line2d_36">
      <g>
       <use xlink:href="#mc0854fd9f2" x="304.874399" y="256.68" style="stroke: #000000; stroke-width: 0.6"/>
      </g>
     </g>
    </g>
    <g id="xtick_19">
     <g id="line2d_37">
      <path d="M 313.785623 256.68
L 313.785623 7.2
" clip-path="url(#p9dd85ed505)" style="fill: none; stroke: #e6e6e6; stroke-width: 0.5; stroke-linecap: square"/>
     </g>
     <g id="line2d_38">
      <g>
       <use xlink:href="#mc0854fd9f2" x="313.785623" y="256.68" style="stroke: #000000; stroke-width: 0.6"/>
      </g>
     </g>
    </g>
    <g id="xtick_20">
     <g id="line2d_39">
      <path d="M 321.504876 256.68
L 321.504876 7.2
" clip-path="url(#p9dd85ed505)" style="fill: none; stroke: #e6e6e6; stroke-width: 0.5; stroke-linecap: square"/>
     </g>
     <g id="line2d_40">
      <g>
       <use xlink:href="#mc0854fd9f2" x="321.504876" y="256.68" style="stroke: #000000; stroke-width: 0.6"/>
      </g>
     </g>
    </g>
    <g id="xtick_21">
     <g id="line2d_41">
      <path d="M 328.31374 256.68
L 328.31374 7.2
" clip-path="url(#p9dd85ed505)" style="fill: none; stroke: #e6e6e6; stroke-width: 0.5; stroke-linecap: square"/>
     </g>
     <g id="line2d_42">
      <g>
       <use xlink:href="#mc0854fd9f2" x="328.31374" y="256.68" style="stroke: #000000; stroke-width: 0.6"/>
      </g>
     </g>
    </g>
    <g id="xtick_22">
     <g id="line2d_43">
      <path d="M 374.474295 256.68
L 374.474295 7.2
" clip-path="url(#p9dd85ed505)" style="fill: none; stroke: #e6e6e6; stroke-width: 0.5; stroke-linecap: square"/>
     </g>
     <g id="line2d_44">
      <g>
       <use xlink:href="#mc0854fd9f2" x="374.474295" y="256.68" style="stroke: #000000; stroke-width: 0.6"/>
      </g>
     </g>
    </g>
    <g id="xtick_23">
     <g id="line2d_45">
      <path d="M 397.913636 256.68
L 397.913636 7.2
" clip-path="url(#p9dd85ed505)" style="fill: none; stroke: #e6e6e6; stroke-width: 0.5; stroke-linecap: square"/>
     </g>
     <g id="line2d_46">
      <g>
       <use xlink:href="#mc0854fd9f2" x="397.913636" y="256.68" style="stroke: #000000; stroke-width: 0.6"/>
      </g>
     </g>
    </g>
    <g id="text_4">
     <!-- Квант времени δ -->
     <g transform="translate(188.50625 287.08) scale(0.1 -0.1)">
      <defs>
       <path id="DejaVuSans-3ae" d="M 628 4666
L 1259 4666
L 1259 2359
L 3516 4666
L 4325 4666
L 2522 2822
L 4419 0
L 3731 0
L 2113 2403
L 1259 1531
L 1259 0
L 628 0
L 628 4666
z
" transform="scale(0.015625)"/>
       <path id="DejaVuSans-3c6" d="M 1156 1613
L 1156 459
L 1975 459
Q 2369 459 2575 607
Q 2781 756 2781 1038
Q 2781 1319 2575 1466
Q 2369 1613 1975 1613
L 1156 1613
z
M 1156 3041
L 1156 2072
L 1913 2072
Q 2238 2072 2444 2201
Q 2650 2331 2650 2563
Q 2650 2794 2444 2917
Q 2238 3041 1913 3041
L 1156 3041
z
M 581 3500
L 1950 3500
Q 2566 3500 2897 3275
Q 3228 3050 3228 2634
Q 3228 2313 3059 2123
Q 2891 1934 2559 1888
Q 2956 1813 3175 1575
Q 3394 1338 3394 981
Q 3394 513 3033 256
Q 2672 0 2003 0
L 581 0
L 581 3500
z
" transform="scale(0.015625)"/>
       <path id="DejaVuSans-3c4" d="M 2194 1759
Q 1497 1759 1228 1600
Q 959 1441 959 1056
Q 959 750 1161 570
Q 1363 391 1709 391
Q 2188 391 2477 730
Q 2766 1069 2766 1631
L 2766 1759
L 2194 1759
z
M 3341 1997
L 3341 0
L 2766 0
L 2766 531
Q 2569 213 2275 61
Q 1981 -91 1556 -91
Q 1019 -91 701 211
Q 384 513 384 1019
Q 384 1609 779 1909
Q 1175 2209 1959 2209
L 2766 2209
L 2766 2266
Q 2766 2663 2505 2880
Q 2244 3097 1772 3097
Q 1472 3097 1187 3025
Q 903 2953 641 2809
L 641 3341
Q 956 3463 1253 3523
Q 1550 3584 1831 3584
Q 2591 3584 2966 3190
Q 3341 2797 3341 1997
z
" transform="scale(0.015625)"/>
       <path id="DejaVuSans-3d1" d="M 581 3500
L 1159 3500
L 1159 2072
L 3025 2072
L 3025 3500
L 3603 3500
L 3603 0
L 3025 0
L 3025 1613
L 1159 1613
L 1159 0
L 581 0
L 581 3500
z
" transform="scale(0.015625)"/>
       <path id="DejaVuSans-3d6" d="M 188 3500
L 3541 3500
L 3541 3041
L 2147 3041
L 2147 0
L 1581 0
L 1581 3041
L 188 3041
L 188 3500
z
" transform="scale(0.015625)"/>
       <path id="DejaVuSans-3" transform="scale(0.015625)"/>
       <path id="DejaVuSans-3d4" d="M 1159 525
L 1159 -1331
L 581 -1331
L 581 3500
L 1159 3500
L 1159 2969
Q 1341 3281 1617 3432
Q 1894 3584 2278 3584
Q 2916 3584 3314 3078
Q 3713 2572 3713 1747
Q 3713 922 3314 415
Q 2916 -91 2278 -91
Q 1894 -91 1617 61
Q 1341 213 1159 525
z
M 3116 1747
Q 3116 2381 2855 2742
Q 2594 3103 2138 3103
Q 1681 3103 1420 2742
Q 1159 2381 1159 1747
Q 1159 1113 1420 752
Q 1681 391 2138 391
Q 2594 391 2855 752
Q 3116 1113 3116 1747
z
" transform="scale(0.015625)"/>
       <path id="DejaVuSans-3c9" d="M 3597 1894
L 3597 1613
L 953 1613
Q 991 1019 1311 708
Q 1631 397 2203 397
Q 2534 397 2845 478
Q 3156 559 3463 722
L 3463 178
Q 3153 47 2828 -22
Q 2503 -91 2169 -91
Q 1331 -91 842 396
Q 353 884 353 1716
Q 353 2575 817 3079
Q 1281 3584 2069 3584
Q 2775 3584 3186 3129
Q 3597 2675 3597 1894
z
M 3022 2063
Q 3016 2534 2758 2815
Q 2500 3097 2075 3097
Q 1594 3097 1305 2825
Q 1016 2553 972 2059
L 3022 2063
z
" transform="scale(0.015625)"/>
       <path id="DejaVuSans-3d0" d="M 581 3500
L 1422 3500
L 2416 1156
L 3413 3500
L 4247 3500
L 4247 0
L 3669 0
L 3669 2950
L 2703 672
L 2128 672
L 1159 2950
L 1159 0
L 581 0
L 581 3500
z
" transform="scale(0.015625)"/>
       <path id="DejaVuSans-3cc" d="M 3578 3500
L 3578 0
L 3006 0
L 3006 2809
L 1319 0
L 581 0
L 581 3500
L 1153 3500
L 1153 697
L 2838 3500
L 3578 3500
z
" transform="scale(0.015625)"/>
       <path id="DejaVuSans-348" d="M 3138 4053
Q 2819 4272 2072 4272
Q 1281 4272 1281 3906
Q 1281 3619 2106 3469
Q 2756 3353 3122 3003
Q 3566 2581 3566 1716
Q 3566 888 3138 400
Q 2709 -91 1959 -91
Q 1213 -91 781 400
Q 353 888 353 1747
Q 353 2384 781 2900
Q 947 3100 1181 3213
Q 694 3459 694 3900
Q 694 4750 2072 4750
Q 2763 4750 3138 4531
L 3138 4053
z
M 1613 3056
Q 1400 2966 1228 2738
Q 959 2384 959 1747
Q 959 1113 1225 756
Q 1494 397 1959 397
Q 2419 397 2687 759
Q 2956 1122 2956 1716
Q 2956 2338 2672 2638
Q 2369 2959 1975 2994
Q 1775 3013 1613 3056
z
" transform="scale(0.015625)"/>
      </defs>
      <use xlink:href="#DejaVuSans-3ae"/>
      <use xlink:href="#DejaVuSans-3c6" transform="translate(71 0)"/>
      <use xlink:href="#DejaVuSans-3c4" transform="translate(129.9375 0)"/>
      <use xlink:href="#DejaVuSans-3d1" transform="translate(191.21875 0)"/>
      <use xlink:href="#DejaVuSans-3d6" transform="translate(256.59375 0)"/>
      <use xlink:href="#DejaVuSans-3" transform="translate(314.84375 0)"/>
      <use xlink:href="#DejaVuSans-3c6" transform="translate(346.625 0)"/>
      <use xlink:href="#DejaVuSans-3d4" transform="translate(405.5625 0)"/>
      <use xlink:href="#DejaVuSans-3c9" transform="translate(469.046875 0)"/>
      <use xlink:href="#DejaVuSans-3d0" transform="translate(530.578125 0)"/>
      <use xlink:href="#DejaVuSans-3c9" transform="translate(606.015625 0)"/>
      <use xlink:href="#DejaVuSans-3d1" transform="translate(667.546875 0)"/>
      <use xlink:href="#DejaVuSans-3cc" transform="translate(732.921875 0)"/>
      <use xlink:href="#DejaVuSans-3" transform="translate(797.90625 0)"/>
      <use xlink:href="#DejaVuSans-348" transform="translate(829.6875 0)"/>
     </g>
    </g>
   </g>
   <g id="matplotlib.axis_2">
    <g id="ytick_1">
     <g id="line2d_47">
      <path d="M 51.7 179.570491
L 414.4 179.570491
" clip-path="url(#p9dd85ed505)" style="fill: none; stroke: #e6e6e6; stroke-width: 0.5; stroke-linecap: square"/>
     </g>
     <g id="line2d_48">
      <defs>
       <path id="m0dd208f9a1" d="M 0 0
L -3.5 0
" style="stroke: #000000; stroke-width: 0.8"/>
      </defs>
      <g>
       <use xlink:href="#m0dd208f9a1" x="51.7" y="179.570491" style="stroke: #000000; stroke-width: 0.8"/>
      </g>
     </g>
     <g id="text_5">
      <!-- $\mathdefault{10^{-4}}$ -->
      <g transform="translate(21.2 184.220491) scale(0.1 -0.1)">
       <use xlink:href="#DejaVuSans-14" transform="translate(0 0.665625)"/>
       <use xlink:href="#DejaVuSans-13" transform="translate(63.623047 0.665625)"/>
       <use xlink:href="#DejaVuSans-c9c" transform="translate(128.203125 41.965625) scale(0.7)"/>
       <use xlink:href="#DejaVuSans-17" transform="translate(186.855469 41.965625) scale(0.7)"/>
      </g>
     </g>
    </g>
    <g id="ytick_2">
     <g id="line2d_49">
      <path d="M 51.7 88.159657
L 414.4 88.159657
" clip-path="url(#p9dd85ed505)" style="fill: none; stroke: #e6e6e6; stroke-width: 0.5; stroke-linecap: square"/>
     </g>
     <g id="line2d_50">
      <g>
       <use xlink:href="#m0dd208f9a1" x="51.7" y="88.159657" style="stroke: #000000; stroke-width: 0.8"/>
      </g>
     </g>
     <g id="text_6">
      <!-- $\mathdefault{10^{-3}}$ -->
      <g transform="translate(21.2 92.859657) scale(0.1 -0.1)">
       <use xlink:href="#DejaVuSans-14" transform="translate(0 0.746875)"/>
       <use xlink:href="#DejaVuSans-13" transform="translate(63.623047 0.746875)"/>
       <use xlink:href="#DejaVuSans-c9c" transform="translate(128.203125 42.046875) scale(0.7)"/>
       <use xlink:href="#DejaVuSans-16" transform="translate(186.855469 42.046875) scale(0.7)"/>
      </g>
     </g>
    </g>
    <g id="ytick_3">
     <g id="line2d_51">
      <path d="M 51.7 243.463922
L 414.4 243.463922
" clip-path="url(#p9dd85ed505)" style="fill: none; stroke: #e6e6e6; stroke-width: 0.5; stroke-linecap: square"/>
     </g>
     <g id="line2d_52">
      <defs>
       <path id="mb7b9f37229" d="M 0 0
L -2 0
" style="stroke: #000000; stroke-width: 0.6"/>
      </defs>
      <g>
       <use xlink:href="#mb7b9f37229" x="51.7" y="243.463922" style="stroke: #000000; stroke-width: 0.6"/>
      </g>
     </g>
    </g>
    <g id="ytick_4">
     <g id="line2d_53">
      <path d="M 51.7 227.367273
L 414.4 227.367273
" clip-path="url(#p9dd85ed505)" style="fill: none; stroke: #e6e6e6; stroke-width: 0.5; stroke-linecap: square"/>
     </g>
     <g id="line2d_54">
      <g>
       <use xlink:href="#mb7b9f37229" x="51.7" y="227.367273" style="stroke: #000000; stroke-width: 0.6"/>
      </g>
     </g>
    </g>
    <g id="ytick_5">
     <g id="line2d_55">
      <path d="M 51.7 215.946519
L 414.4 215.946519
" clip-path="url(#p9dd85ed505)" style="fill: none; stroke: #e6e6e6; stroke-width: 0.5; stroke-linecap: square"/>
     </g>
     <g id="line2d_56">
      <g>
       <use xlink:href="#mb7b9f37229" x="51.7" y="215.946519" style="stroke: #000000; stroke-width: 0.6"/>
      </g>
     </g>
    </g>
    <g id="ytick_6">
     <g id="line2d_57">
      <path d="M 51.7 207.087894
L 414.4 207.087894
" clip-path="url(#p9dd85ed505)" style="fill: none; stroke: #e6e6e6; stroke-width: 0.5; stroke-linecap: square"/>
     </g>
     <g id="line2d_58">
      <g>
       <use xlink:href="#mb7b9f37229" x="51.7" y="207.087894" style="stroke: #000000; stroke-width: 0.6"/>
      </g>
     </g>
    </g>
    <g id="ytick_7">
     <g id="line2d_59">
      <path d="M 51.7 199.84987
L 414.4 199.84987
" clip-path="url(#p9dd85ed505)" style="fill: none; stroke: #e6e6e6; stroke-width: 0.5; stroke-linecap: square"/>
     </g>
     <g id="line2d_60">
      <g>
       <use xlink:href="#mb7b9f37229" x="51.7" y="199.84987" style="stroke: #000000; stroke-width: 0.6"/>
      </g>
     </g>
    </g>
    <g id="ytick_8">
     <g id="line2d_61">
      <path d="M 51.7 193.730208
L 414.4 193.730208
" clip-path="url(#p9dd85ed505)" style="fill: none; stroke: #e6e6e6; stroke-width: 0.5; stroke-linecap: square"/>
     </g>
     <g id="line2d_62">
      <g>
       <use xlink:href="#mb7b9f37229" x="51.7" y="193.730208" style="stroke: #000000; stroke-width: 0.6"/>
      </g>
     </g>
    </g>
    <g id="ytick_9">
     <g id="line2d_63">
      <path d="M 51.7 188.429116
L 414.4 188.429116
" clip-path="url(#p9dd85ed505)" style="fill: none; stroke: #e6e6e6; stroke-width: 0.5; stroke-linecap: square"/>
     </g>
     <g id="line2d_64">
      <g>
       <use xlink:href="#mb7b9f37229" x="51.7" y="188.429116" style="stroke: #000000; stroke-width: 0.6"/>
      </g>
     </g>
    </g>
    <g id="ytick_10">
     <g id="line2d_65">
      <path d="M 51.7 183.753221
L 414.4 183.753221
" clip-path="url(#p9dd85ed505)" style="fill: none; stroke: #e6e6e6; stroke-width: 0.5; stroke-linecap: square"/>
     </g>
     <g id="line2d_66">
      <g>
       <use xlink:href="#mb7b9f37229" x="51.7" y="183.753221" style="stroke: #000000; stroke-width: 0.6"/>
      </g>
     </g>
    </g>
    <g id="ytick_11">
     <g id="line2d_67">
      <path d="M 51.7 152.053088
L 414.4 152.053088
" clip-path="url(#p9dd85ed505)" style="fill: none; stroke: #e6e6e6; stroke-width: 0.5; stroke-linecap: square"/>
     </g>
     <g id="line2d_68">
      <g>
       <use xlink:href="#mb7b9f37229" x="51.7" y="152.053088" style="stroke: #000000; stroke-width: 0.6"/>
      </g>
     </g>
    </g>
    <g id="ytick_12">
     <g id="line2d_69">
      <path d="M 51.7 135.956439
L 414.4 135.956439
" clip-path="url(#p9dd85ed505)" style="fill: none; stroke: #e6e6e6; stroke-width: 0.5; stroke-linecap: square"/>
     </g>
     <g id="line2d_70">
      <g>
       <use xlink:href="#mb7b9f37229" x="51.7" y="135.956439" style="stroke: #000000; stroke-width: 0.6"/>
      </g>
     </g>
    </g>
    <g id="ytick_13">
     <g id="line2d_71">
      <path d="M 51.7 124.535685
L 414.4 124.535685
" clip-path="url(#p9dd85ed505)" style="fill: none; stroke: #e6e6e6; stroke-width: 0.5; stroke-linecap: square"/>
     </g>
     <g id="line2d_72">
      <g>
       <use xlink:href="#mb7b9f37229" x="51.7" y="124.535685" style="stroke: #000000; stroke-width: 0.6"/>
      </g>
     </g>
    </g>
    <g id="ytick_14">
     <g id="line2d_73">
      <path d="M 51.7 115.67706
L 414.4 115.67706
" clip-path="url(#p9dd85ed505)" style="fill: none; stroke: #e6e6e6; stroke-width: 0.5; stroke-linecap: square"/>
     </g>
     <g id="line2d_74">
      <g>
       <use xlink:href="#mb7b9f37229" x="51.7" y="115.67706" style="stroke: #000000; stroke-width: 0.6"/>
      </g>
     </g>
    </g>
    <g id="ytick_15">
     <g id="line2d_75">
      <path d="M 51.7 108.439036
L 414.4 108.439036
" clip-path="url(#p9dd85ed505)" style="fill: none; stroke: #e6e6e6; stroke-width: 0.5; stroke-linecap: square"/>
     </g>
     <g id="line2d_76">
      <g>
       <use xlink:href="#mb7b9f37229" x="51.7" y="108.439036" style="stroke: #000000; stroke-width: 0.6"/>
      </g>
     </g>
    </g>
    <g id="ytick_16">
     <g id="line2d_77">
      <path d="M 51.7 102.319374
L 414.4 102.319374
" clip-path="url(#p9dd85ed505)" style="fill: none; stroke: #e6e6e6; stroke-width: 0.5; stroke-linecap: square"/>
     </g>
     <g id="line2d_78">
      <g>
       <use xlink:href="#mb7b9f37229" x="51.7" y="102.319374" style="stroke: #000000; stroke-width: 0.6"/>
      </g>
     </g>
    </g>
    <g id="ytick_17">
     <g id="line2d_79">
      <path d="M 51.7 97.018282
L 414.4 97.018282
" clip-path="url(#p9dd85ed505)" style="fill: none; stroke: #e6e6e6; stroke-width: 0.5; stroke-linecap: square"/>
     </g>
     <g id="line2d_80">
      <g>
       <use xlink:href="#mb7b9f37229" x="51.7" y="97.018282" style="stroke: #000000; stroke-width: 0.6"/>
      </g>
     </g>
    </g>
    <g id="ytick_18">
     <g id="line2d_81">
      <path d="M 51.7 92.342387
L 414.4 92.342387
" clip-path="url(#p9dd85ed505)" style="fill: none; stroke: #e6e6e6; stroke-width: 0.5; stroke-linecap: square"/>
     </g>
     <g id="line2d_82">
      <g>
       <use xlink:href="#mb7b9f37229" x="51.7" y="92.342387" style="stroke: #000000; stroke-width: 0.6"/>
      </g>
     </g>
    </g>
    <g id="ytick_19">
     <g id="line2d_83">
      <path d="M 51.7 60.642254
L 414.4 60.642254
" clip-path="url(#p9dd85ed505)" style="fill: none; stroke: #e6e6e6; stroke-width: 0.5; stroke-linecap: square"/>
     </g>
     <g id="line2d_84">
      <g>
       <use xlink:href="#mb7b9f37229" x="51.7" y="60.642254" style="stroke: #000000; stroke-width: 0.6"/>
      </g>
     </g>
    </g>
    <g id="ytick_20">
     <g id="line2d_85">
      <path d="M 51.7 44.545605
L 414.4 44.545605
" clip-path="url(#p9dd85ed505)" style="fill: none; stroke: #e6e6e6; stroke-width: 0.5; stroke-linecap: square"/>
     </g>
     <g id="line2d_86">
      <g>
       <use xlink:href="#mb7b9f37229" x="51.7" y="44.545605" style="stroke: #000000; stroke-width: 0.6"/>
      </g>
     </g>
    </g>
    <g id="ytick_21">
     <g id="line2d_87">
      <path d="M 51.7 33.124851
L 414.4 33.124851
" clip-path="url(#p9dd85ed505)" style="fill: none; stroke: #e6e6e6; stroke-width: 0.5; stroke-linecap: square"/>
     </g>
     <g id="line2d_88">
      <g>
       <use xlink:href="#mb7b9f37229" x="51.7" y="33.124851" style="stroke: #000000; stroke-width: 0.6"/>
      </g>
     </g>
    </g>
    <g id="ytick_22">
     <g id="line2d_89">
      <path d="M 51.7 24.266226
L 414.4 24.266226
" clip-path="url(#p9dd85ed505)" style="fill: none; stroke: #e6e6e6; stroke-width: 0.5; stroke-linecap: square"/>
     </g>
     <g id="line2d_90">
      <g>
       <use xlink:href="#mb7b9f37229" x="51.7" y="24.266226" style="stroke: #000000; stroke-width: 0.6"/>
      </g>
     </g>
    </g>
    <g id="ytick_23">
     <g id="line2d_91">
      <path d="M 51.7 17.028202
L 414.4 17.028202
" clip-path="url(#p9dd85ed505)" style="fill: none; stroke: #e6e6e6; stroke-width: 0.5; stroke-linecap: square"/>
     </g>
     <g id="line2d_92">
      <g>
       <use xlink:href="#mb7b9f37229" x="51.7" y="17.028202" style="stroke: #000000; stroke-width: 0.6"/>
      </g>
     </g>
    </g>
    <g id="ytick_24">
     <g id="line2d_93">
      <path d="M 51.7 10.90854
L 414.4 10.90854
" clip-path="url(#p9dd85ed505)" style="fill: none; stroke: #e6e6e6; stroke-width: 0.5; stroke-linecap: square"/>
     </g>
     <g id="line2d_94">
      <g>
       <use xlink:href="#mb7b9f37229" x="51.7" y="10.90854" style="stroke: #000000; stroke-width: 0.6"/>
      </g>
     </g>
    </g>
    <g id="text_7">
     <!-- Политически-нейтральная частота коллизий -->
     <g transform="translate(14.797656 251.220469) rotate(-90) scale(0.1 -0.1)">
      <defs>
       <path id="DejaVuSans-3b3" d="M 4184 4666
L 4184 0
L 3553 0
L 3553 4134
L 1259 4134
L 1259 0
L 628 0
L 628 4666
L 4184 4666
z
" transform="scale(0.015625)"/>
       <path id="DejaVuSans-3d2" d="M 1959 3097
Q 1497 3097 1228 2736
Q 959 2375 959 1747
Q 959 1119 1226 758
Q 1494 397 1959 397
Q 2419 397 2687 759
Q 2956 1122 2956 1747
Q 2956 2369 2687 2733
Q 2419 3097 1959 3097
z
M 1959 3584
Q 2709 3584 3137 3096
Q 3566 2609 3566 1747
Q 3566 888 3137 398
Q 2709 -91 1959 -91
Q 1206 -91 779 398
Q 353 888 353 1747
Q 353 2609 779 3096
Q 1206 3584 1959 3584
z
" transform="scale(0.015625)"/>
       <path id="DejaVuSans-3cf" d="M 238 0
L 238 478
Q 806 566 981 959
Q 1194 1513 1194 2928
L 1194 3500
L 3559 3500
L 3559 0
L 2984 0
L 2984 3041
L 1769 3041
L 1769 2694
Q 1769 1344 1494 738
Q 1200 91 238 0
z
" transform="scale(0.015625)"/>
       <path id="DejaVuSans-3db" d="M 2625 0
L 2625 1472
L 1553 1472
Q 1075 1472 756 1769
Q 469 2038 469 2613
L 469 3500
L 1044 3500
L 1044 2666
Q 1044 2300 1206 2116
Q 1372 1931 1697 1931
L 2625 1931
L 2625 3500
L 3200 3500
L 3200 0
L 2625 0
z
" transform="scale(0.015625)"/>
       <path id="DejaVuSans-3d5" d="M 3122 3366
L 3122 2828
Q 2878 2963 2633 3030
Q 2388 3097 2138 3097
Q 1578 3097 1268 2742
Q 959 2388 959 1747
Q 959 1106 1268 751
Q 1578 397 2138 397
Q 2388 397 2633 464
Q 2878 531 3122 666
L 3122 134
Q 2881 22 2623 -34
Q 2366 -91 2075 -91
Q 1284 -91 818 406
Q 353 903 353 1747
Q 353 2603 823 3093
Q 1294 3584 2113 3584
Q 2378 3584 2631 3529
Q 2884 3475 3122 3366
z
" transform="scale(0.015625)"/>
       <path id="DejaVuSans-3ce" d="M 581 3500
L 1153 3500
L 1153 1856
L 2775 3500
L 3481 3500
L 2144 2147
L 3653 0
L 3009 0
L 1769 1766
L 1153 1141
L 1153 0
L 581 0
L 581 3500
z
" transform="scale(0.015625)"/>
       <path id="DejaVuSans-10" d="M 313 2009
L 1997 2009
L 1997 1497
L 313 1497
L 313 2009
z
" transform="scale(0.015625)"/>
       <path id="DejaVuSans-3cd" d="M 3578 3500
L 3578 0
L 3006 0
L 3006 2809
L 1319 0
L 581 0
L 581 3500
L 1153 3500
L 1153 697
L 2838 3500
L 3578 3500
z
M 1103 4862
L 1472 4862
Q 1506 4628 1657 4510
Q 1809 4393 2081 4393
Q 2350 4393 2500 4509
Q 2650 4625 2690 4862
L 3059 4862
Q 3028 4415 2781 4190
Q 2534 3965 2081 3965
Q 1628 3965 1381 4190
Q 1134 4415 1103 4862
z
" transform="scale(0.015625)"/>
       <path id="DejaVuSans-3e0" d="M 2781 1038
Q 2781 1319 2576 1466
Q 2372 1613 1978 1613
L 1159 1613
L 1159 459
L 1978 459
Q 2372 459 2576 607
Q 2781 756 2781 1038
z
M 581 3500
L 1159 3500
L 1159 2072
L 2003 2072
Q 2672 2072 3033 1817
Q 3394 1563 3394 1038
Q 3394 513 3033 256
Q 2672 0 2003 0
L 581 0
L 581 3500
z
" transform="scale(0.015625)"/>
       <path id="DejaVuSans-3e3" d="M 1181 2491
Q 1181 2231 1381 2084
Q 1581 1938 1953 1938
L 2728 1938
L 2728 3041
L 1953 3041
Q 1581 3041 1381 2897
Q 1181 2753 1181 2491
z
M 363 0
L 1431 1534
Q 1069 1616 828 1830
Q 588 2044 588 2491
Q 588 2997 923 3248
Q 1259 3500 1938 3500
L 3306 3500
L 3306 0
L 2728 0
L 2728 1478
L 2013 1478
L 981 0
L 363 0
z
" transform="scale(0.015625)"/>
       <path id="DejaVuSans-3cb" d="M 2206 1888
Q 2594 1813 2809 1584
Q 3025 1356 3025 1019
Q 3025 478 2622 193
Q 2219 -91 1475 -91
Q 1225 -91 961 -47
Q 697 -3 416 84
L 416 619
Q 638 503 903 445
Q 1169 388 1459 388
Q 1931 388 2195 563
Q 2459 738 2459 1019
Q 2459 1294 2225 1461
Q 1991 1628 1563 1628
L 1100 1628
L 1100 2103
L 1584 2103
Q 1947 2103 2158 2242
Q 2369 2381 2369 2600
Q 2369 2800 2151 2944
Q 1934 3088 1563 3088
Q 1341 3088 1089 3047
Q 838 3006 534 2916
L 534 3438
Q 841 3513 1106 3550
Q 1372 3588 1609 3588
Q 2222 3588 2576 3342
Q 2931 3097 2931 2656
Q 2931 2366 2743 2164
Q 2556 1963 2206 1888
z
" transform="scale(0.015625)"/>
      </defs>
      <use xlink:href="#DejaVuSans-3b3"/>
      <use xlink:href="#DejaVuSans-3d2" transform="translate(75.203125 0)"/>
      <use xlink:href="#DejaVuSans-3cf" transform="translate(136.390625 0)"/>
      <use xlink:href="#DejaVuSans-3cc" transform="translate(200.3125 0)"/>
      <use xlink:href="#DejaVuSans-3d6" transform="translate(265.296875 0)"/>
      <use xlink:href="#DejaVuSans-3cc" transform="translate(323.546875 0)"/>
      <use xlink:href="#DejaVuSans-3db" transform="translate(388.53125 0)"/>
      <use xlink:href="#DejaVuSans-3c9" transform="translate(447.609375 0)"/>
      <use xlink:href="#DejaVuSans-3d5" transform="translate(509.140625 0)"/>
      <use xlink:href="#DejaVuSans-3ce" transform="translate(564.125 0)"/>
      <use xlink:href="#DejaVuSans-3cc" transform="translate(624.53125 0)"/>
      <use xlink:href="#DejaVuSans-10" transform="translate(689.515625 0)"/>
      <use xlink:href="#DejaVuSans-3d1" transform="translate(725.59375 0)"/>
      <use xlink:href="#DejaVuSans-3c9" transform="translate(790.96875 0)"/>
      <use xlink:href="#DejaVuSans-3cd" transform="translate(852.5 0)"/>
      <use xlink:href="#DejaVuSans-3d6" transform="translate(917.484375 0)"/>
      <use xlink:href="#DejaVuSans-3d4" transform="translate(975.734375 0)"/>
      <use xlink:href="#DejaVuSans-3c4" transform="translate(1039.21875 0)"/>
      <use xlink:href="#DejaVuSans-3cf" transform="translate(1100.5 0)"/>
      <use xlink:href="#DejaVuSans-3e0" transform="translate(1164.421875 0)"/>
      <use xlink:href="#DejaVuSans-3d1" transform="translate(1223.359375 0)"/>
      <use xlink:href="#DejaVuSans-3c4" transform="translate(1288.734375 0)"/>
      <use xlink:href="#DejaVuSans-3e3" transform="translate(1350.015625 0)"/>
      <use xlink:href="#DejaVuSans-3" transform="translate(1410.171875 0)"/>
      <use xlink:href="#DejaVuSans-3db" transform="translate(1441.953125 0)"/>
      <use xlink:href="#DejaVuSans-3c4" transform="translate(1501.03125 0)"/>
      <use xlink:href="#DejaVuSans-3d5" transform="translate(1562.3125 0)"/>
      <use xlink:href="#DejaVuSans-3d6" transform="translate(1617.296875 0)"/>
      <use xlink:href="#DejaVuSans-3d2" transform="translate(1675.546875 0)"/>
      <use xlink:href="#DejaVuSans-3d6" transform="translate(1736.734375 0)"/>
      <use xlink:href="#DejaVuSans-3c4" transform="translate(1794.984375 0)"/>
      <use xlink:href="#DejaVuSans-3" transform="translate(1856.265625 0)"/>
      <use xlink:href="#DejaVuSans-3ce" transform="translate(1888.046875 0)"/>
      <use xlink:href="#DejaVuSans-3d2" transform="translate(1948.453125 0)"/>
      <use xlink:href="#DejaVuSans-3cf" transform="translate(2009.640625 0)"/>
      <use xlink:href="#DejaVuSans-3cf" transform="translate(2073.5625 0)"/>
      <use xlink:href="#DejaVuSans-3cc" transform="translate(2137.484375 0)"/>
      <use xlink:href="#DejaVuSans-3cb" transform="translate(2202.46875 0)"/>
      <use xlink:href="#DejaVuSans-3cc" transform="translate(2255.640625 0)"/>
      <use xlink:href="#DejaVuSans-3cd" transform="translate(2320.625 0)"/>
     </g>
    </g>
   </g>
   <g id="line2d_95">
    <path d="M 68.186364 244.412106
L 131.695524 202.086404
L 201.29542 154.800524
L 264.80458 111.323282
L 334.404476 63.068324
L 397.913636 18.54
" clip-path="url(#p9dd85ed505)" style="fill: none; stroke: #000000; stroke-width: 1.5; stroke-linecap: square"/>
    <defs>
     <path id="m7df014e1c2" d="M 0 3
C 0.795609 3 1.55874 2.683901 2.12132 2.12132
C 2.683901 1.55874 3 0.795609 3 0
C 3 -0.795609 2.683901 -1.55874 2.12132 -2.12132
C 1.55874 -2.683901 0.795609 -3 0 -3
C -0.795609 -3 -1.55874 -2.683901 -2.12132 -2.12132
C -2.683901 -1.55874 -3 -0.795609 -3 0
C -3 0.795609 -2.683901 1.55874 -2.12132 2.12132
C -1.55874 2.683901 -0.795609 3 0 3
z
" style="stroke: #000000"/>
    </defs>
    <g clip-path="url(#p9dd85ed505)">
     <use xlink:href="#m7df014e1c2" x="68.186364" y="244.412106" style="stroke: #000000"/>
     <use xlink:href="#m7df014e1c2" x="131.695524" y="202.086404" style="stroke: #000000"/>
     <use xlink:href="#m7df014e1c2" x="201.29542" y="154.800524" style="stroke: #000000"/>
     <use xlink:href="#m7df014e1c2" x="264.80458" y="111.323282" style="stroke: #000000"/>
     <use xlink:href="#m7df014e1c2" x="334.404476" y="63.068324" style="stroke: #000000"/>
     <use xlink:href="#m7df014e1c2" x="397.913636" y="18.54" style="stroke: #000000"/>
    </g>
   </g>
   <g id="line2d_96">
    <path d="M 68.186364 245.34
L 131.695524 201.822112
L 201.29542 154.130717
L 264.80458 110.61283
L 334.404476 62.921434
L 397.913636 19.403547
" clip-path="url(#p9dd85ed505)" style="fill: none; stroke-dasharray: 5.55,2.4; stroke-dashoffset: 0; stroke: #666666; stroke-width: 1.5"/>
   </g>
   <g id="patch_3">
    <path d="M 51.7 256.68
L 51.7 7.2
" style="fill: none; stroke: #000000; stroke-width: 0.8; stroke-linejoin: miter; stroke-linecap: square"/>
   </g>
   <g id="patch_4">
    <path d="M 414.4 256.68
L 414.4 7.2
" style="fill: none; stroke: #000000; stroke-width: 0.8; stroke-linejoin: miter; stroke-linecap: square"/>
   </g>
   <g id="patch_5">
    <path d="M 51.7 256.68
L 414.4 256.68
" style="fill: none; stroke: #000000; stroke-width: 0.8; stroke-linejoin: miter; stroke-linecap: square"/>
   </g>
   <g id="patch_6">
    <path d="M 51.7 7.2
L 414.4 7.2
" style="fill: none; stroke: #000000; stroke-width: 0.8; stroke-linejoin: miter; stroke-linecap: square"/>
   </g>
   <g id="legend_1">
    <g id="line2d_97">
     <path d="M 58.9 17.67875
L 66.9 17.67875
L 74.9 17.67875
" style="fill: none; stroke: #000000; stroke-width: 1.5; stroke-linecap: square"/>
     <g>
      <use xlink:href="#m7df014e1c2" x="66.9" y="17.67875" style="stroke: #000000"/>
     </g>
    </g>
    <g id="text_8">
     <!-- Среднее по условию -->
     <g transform="translate(81.3 20.47875) scale(0.08 -0.08)">
      <defs>
       <path id="DejaVuSans-3b5" d="M 4122 4306
L 4122 3641
Q 3803 3938 3442 4084
Q 3081 4231 2675 4231
Q 1875 4231 1450 3742
Q 1025 3253 1025 2328
Q 1025 1406 1450 917
Q 1875 428 2675 428
Q 3081 428 3442 575
Q 3803 722 4122 1019
L 4122 359
Q 3791 134 3420 21
Q 3050 -91 2638 -91
Q 1578 -91 968 557
Q 359 1206 359 2328
Q 359 3453 968 4101
Q 1578 4750 2638 4750
Q 3056 4750 3426 4639
Q 3797 4528 4122 4306
z
" transform="scale(0.015625)"/>
       <path id="DejaVuSans-3c8" d="M 1384 459
L 3053 459
L 3053 3041
L 1844 3041
L 1844 2603
Q 1844 1316 1475 628
L 1384 459
z
M 550 459
Q 834 584 959 850
Q 1266 1509 1266 2838
L 1266 3500
L 3631 3500
L 3631 459
L 4091 459
L 4091 -884
L 3631 -884
L 3631 0
L 794 0
L 794 -884
L 334 -884
L 334 459
L 550 459
z
" transform="scale(0.015625)"/>
       <path id="DejaVuSans-3d3" d="M 3603 3500
L 3603 0
L 3025 0
L 3025 3041
L 1159 3041
L 1159 0
L 581 0
L 581 3500
L 3603 3500
z
" transform="scale(0.015625)"/>
       <path id="DejaVuSans-3d7" d="M 2059 -325
Q 1816 -950 1584 -1140
Q 1353 -1331 966 -1331
L 506 -1331
L 506 -850
L 844 -850
Q 1081 -850 1212 -737
Q 1344 -625 1503 -206
L 1606 56
L 191 3500
L 800 3500
L 1894 763
L 2988 3500
L 3597 3500
L 2059 -325
z
" transform="scale(0.015625)"/>
       <path id="DejaVuSans-3e2" d="M 3431 3097
Q 2969 3097 2700 2736
Q 2431 2375 2431 1747
Q 2431 1119 2698 758
Q 2966 397 3431 397
Q 3891 397 4159 759
Q 4428 1122 4428 1747
Q 4428 2369 4159 2733
Q 3891 3097 3431 3097
z
M 1844 2103
Q 1903 2697 2292 3140
Q 2681 3584 3431 3584
Q 4181 3584 4609 3096
Q 5038 2609 5038 1747
Q 5038 888 4609 398
Q 4181 -91 3431 -91
Q 2678 -91 2267 381
Q 1856 853 1828 1628
L 1178 1628
L 1178 0
L 603 0
L 603 3500
L 1178 3500
L 1178 2103
L 1844 2103
z
" transform="scale(0.015625)"/>
      </defs>
      <use xlink:href="#DejaVuSans-3b5"/>
      <use xlink:href="#DejaVuSans-3d4" transform="translate(69.828125 0)"/>
      <use xlink:href="#DejaVuSans-3c9" transform="translate(133.3125 0)"/>
      <use xlink:href="#DejaVuSans-3c8" transform="translate(194.84375 0)"/>
      <use xlink:href="#DejaVuSans-3d1" transform="translate(263.984375 0)"/>
      <use xlink:href="#DejaVuSans-3c9" transform="translate(329.359375 0)"/>
      <use xlink:href="#DejaVuSans-3c9" transform="translate(390.890625 0)"/>
      <use xlink:href="#DejaVuSans-3" transform="translate(452.421875 0)"/>
      <use xlink:href="#DejaVuSans-3d3" transform="translate(484.203125 0)"/>
      <use xlink:href="#DejaVuSans-3d2" transform="translate(549.578125 0)"/>
      <use xlink:href="#DejaVuSans-3" transform="translate(610.765625 0)"/>
      <use xlink:href="#DejaVuSans-3d7" transform="translate(642.546875 0)"/>
      <use xlink:href="#DejaVuSans-3d5" transform="translate(701.734375 0)"/>
      <use xlink:href="#DejaVuSans-3cf" transform="translate(756.71875 0)"/>
      <use xlink:href="#DejaVuSans-3d2" transform="translate(820.640625 0)"/>
      <use xlink:href="#DejaVuSans-3c6" transform="translate(881.828125 0)"/>
      <use xlink:href="#DejaVuSans-3cc" transform="translate(940.765625 0)"/>
      <use xlink:href="#DejaVuSans-3e2" transform="translate(1005.75 0)"/>
     </g>
    </g>
    <g id="line2d_98">
     <path d="M 58.9 29.679375
L 66.9 29.679375
L 74.9 29.679375
" style="fill: none; stroke-dasharray: 5.55,2.4; stroke-dashoffset: 0; stroke: #666666; stroke-width: 1.5"/>
    </g>
    <g id="text_9">
     <!-- Лог-лог аппроксимация -->
     <g transform="translate(81.3 32.479375) scale(0.08 -0.08)">
      <defs>
       <path id="DejaVuSans-3af" d="M 263 0
L 263 531
Q 941 678 1134 1191
Q 1406 1997 1406 3872
L 1406 4666
L 4181 4666
L 4181 0
L 3550 0
L 3550 4134
L 2034 4134
L 2034 3559
Q 2034 1791 1716 966
Q 1409 175 263 0
z
" transform="scale(0.015625)"/>
       <path id="DejaVuSans-3c7" d="M 581 0
L 581 3500
L 3050 3500
L 3050 3041
L 1159 3041
L 1159 0
L 581 0
z
" transform="scale(0.015625)"/>
       <path id="DejaVuSans-3da" d="M 3603 0
L 581 0
L 581 3500
L 1159 3500
L 1159 459
L 3025 459
L 3025 3500
L 3603 3500
L 3603 459
L 4063 459
L 4063 -884
L 3603 -884
L 3603 0
z
" transform="scale(0.015625)"/>
      </defs>
      <use xlink:href="#DejaVuSans-3af"/>
      <use xlink:href="#DejaVuSans-3d2" transform="translate(75.203125 0)"/>
      <use xlink:href="#DejaVuSans-3c7" transform="translate(136.390625 0)"/>
      <use xlink:href="#DejaVuSans-10" transform="translate(188.9375 0)"/>
      <use xlink:href="#DejaVuSans-3cf" transform="translate(225.015625 0)"/>
      <use xlink:href="#DejaVuSans-3d2" transform="translate(288.9375 0)"/>
      <use xlink:href="#DejaVuSans-3c7" transform="translate(350.125 0)"/>
      <use xlink:href="#DejaVuSans-3" transform="translate(402.671875 0)"/>
      <use xlink:href="#DejaVuSans-3c4" transform="translate(434.453125 0)"/>
      <use xlink:href="#DejaVuSans-3d3" transform="translate(495.734375 0)"/>
      <use xlink:href="#DejaVuSans-3d3" transform="translate(561.109375 0)"/>
      <use xlink:href="#DejaVuSans-3d4" transform="translate(626.484375 0)"/>
      <use xlink:href="#DejaVuSans-3d2" transform="translate(689.96875 0)"/>
      <use xlink:href="#DejaVuSans-3ce" transform="translate(751.15625 0)"/>
      <use xlink:href="#DejaVuSans-3d5" transform="translate(811.5625 0)"/>
      <use xlink:href="#DejaVuSans-3cc" transform="translate(866.546875 0)"/>
      <use xlink:href="#DejaVuSans-3d0" transform="translate(931.53125 0)"/>
      <use xlink:href="#DejaVuSans-3c4" transform="translate(1006.96875 0)"/>
      <use xlink:href="#DejaVuSans-3da" transform="translate(1068.25 0)"/>
      <use xlink:href="#DejaVuSans-3cc" transform="translate(1136.3125 0)"/>
      <use xlink:href="#DejaVuSans-3e3" transform="translate(1201.296875 0)"/>
     </g>
    </g>
   </g>
  </g>
 </g>
 <defs>
  <clipPath id="p9dd85ed505">
   <rect x="51.7" y="7.2" width="362.7" height="249.48"/>
  </clipPath>
 </defs>
</svg>
